<?xml version="1.0" encoding="UTF-8" standalone="no"?>
<svg
   xmlns:osb="http://www.openswatchbook.org/uri/2009/osb"
   xmlns:dc="http://purl.org/dc/elements/1.1/"
   xmlns:cc="http://creativecommons.org/ns#"
   xmlns:rdf="http://www.w3.org/1999/02/22-rdf-syntax-ns#"
   xmlns:svg="http://www.w3.org/2000/svg"
   xmlns="http://www.w3.org/2000/svg"
   xmlns:sodipodi="http://sodipodi.sourceforge.net/DTD/sodipodi-0.dtd"
   xmlns:inkscape="http://www.inkscape.org/namespaces/inkscape"
   width="10"
   height="19"
   id="svg2"
   version="1.1"
   inkscape:version="0.48.4 r9939"
   sodipodi:docname="launcher_arrow_outline_ltr_19.svg">
  <metadata
     id="metadata16">
    <rdf:RDF>
      <cc:Work
         rdf:about="">
        <dc:format>image/svg+xml</dc:format>
        <dc:type
           rdf:resource="http://purl.org/dc/dcmitype/StillImage" />
        <dc:title></dc:title>
      </cc:Work>
    </rdf:RDF>
  </metadata>
  <sodipodi:namedview
     pagecolor="#ffffff"
     bordercolor="#666666"
     borderopacity="1"
     objecttolerance="10"
     gridtolerance="10"
     guidetolerance="10"
     inkscape:pageopacity="0"
     inkscape:pageshadow="2"
     inkscape:window-width="2462"
     inkscape:window-height="1564"
     id="namedview14"
     showgrid="false"
     showguides="true"
     inkscape:guide-bbox="true"
     inkscape:zoom="64"
     inkscape:cx="0.77549138"
     inkscape:cy="3.7858454"
     inkscape:window-x="98"
     inkscape:window-y="36"
     inkscape:window-maximized="1"
     inkscape:current-layer="svg2" />
  <defs
     id="defs4">
    <linearGradient
       id="linearGradient3766"
       osb:paint="solid">
      <stop
         style="stop-color:#00ffe1;stop-opacity:1;"
         offset="0"
         id="stop3768" />
    </linearGradient>
    <clipPath
       id="clipPath6">
      <rect
         width="10"
         height="19"
         x="20"
         y="1033.36"
         opacity="0.12"
         fill="#ff00ff"
         color="#000000"
         id="rect8" />
    </clipPath>
  </defs>
  <path
     style="font-size:medium;font-style:normal;font-variant:normal;font-weight:normal;font-stretch:normal;text-indent:0;text-align:start;text-decoration:none;line-height:normal;letter-spacing:normal;word-spacing:normal;text-transform:none;direction:ltr;block-progression:tb;writing-mode:lr-tb;text-anchor:start;baseline-shift:baseline;color:#000000;fill:#00ffe1;fill-opacity:1;fill-rule:nonzero;stroke:none;stroke-width:0.54646415;marker:none;visibility:visible;display:inline;overflow:visible;enable-background:accumulate;font-family:Sans;-inkscape-font-specification:Sans"
     d="M 2.21875,5.34375 C 2.0919469,5.3694008 1.9936485,5.4957845 2,5.625 L 2,10 2,14.375 c -5.96e-4,0.01041 -5.96e-4,0.02084 0,0.03125 0.00959,0.04612 0.031359,0.08965 0.0625,0.125 0.031432,0.04245 0.075447,0.07546 0.125,0.09375 0.059924,0.02189 0.1275761,0.02189 0.1875,0 0.035126,-0.01404 0.067277,-0.03548 0.09375,-0.0625 C 3.0606204,13.825362 3.7384126,13.095074 4.375,12.375 l 1.90625,-2.1875 c 0.027022,-0.02647 0.048456,-0.05862 0.0625,-0.09375 0.021887,-0.05992 0.021887,-0.1275761 0,-0.1875 C 6.3297062,9.8711243 6.3082722,9.8389734 6.28125,9.8125 L 4.375,7.625 2.46875,5.4375 C 2.4087333,5.3664769 2.3106682,5.3297025 2.21875,5.34375 z m 0.3125,1 L 3.96875,8 l 1.75,2 -1.75,2 -1.4375,1.65625 0,-3.65625 z"
     id="path2995"
     inkscape:connector-curvature="0"
     sodipodi:nodetypes="cccccccccccccccccccccccc" />
</svg>
