<?xml version="1.0" encoding="UTF-8" standalone="no"?>
<!-- Created with Inkscape (http://www.inkscape.org/) -->

<svg
   xmlns:dc="http://purl.org/dc/elements/1.1/"
   xmlns:cc="http://creativecommons.org/ns#"
   xmlns:rdf="http://www.w3.org/1999/02/22-rdf-syntax-ns#"
   xmlns:svg="http://www.w3.org/2000/svg"
   xmlns="http://www.w3.org/2000/svg"
   xmlns:sodipodi="http://sodipodi.sourceforge.net/DTD/sodipodi-0.dtd"
   xmlns:inkscape="http://www.inkscape.org/namespaces/inkscape"
   width="24"
   height="24"
   id="svg2"
   version="1.1"
   inkscape:version="0.48.4 r9939"
   sodipodi:docname="nomal-max.svg">
  <defs
     id="defs4" />
  <sodipodi:namedview
     id="base"
     pagecolor="#ffffff"
     bordercolor="#666666"
     borderopacity="1.0"
     inkscape:pageopacity="0.0"
     inkscape:pageshadow="2"
     inkscape:zoom="15.839192"
     inkscape:cx="7.6038988"
     inkscape:cy="1.6219506"
     inkscape:document-units="px"
     inkscape:current-layer="layer1"
     showgrid="false"
     width="743.09449px"
     inkscape:window-width="2462"
     inkscape:window-height="1564"
     inkscape:window-x="98"
     inkscape:window-y="36"
     inkscape:window-maximized="1" />
  <metadata
     id="metadata7">
    <rdf:RDF>
      <cc:Work
         rdf:about="">
        <dc:format>image/svg+xml</dc:format>
        <dc:type
           rdf:resource="http://purl.org/dc/dcmitype/StillImage" />
        <dc:title></dc:title>
      </cc:Work>
    </rdf:RDF>
  </metadata>
  <g
     inkscape:label="Layer 1"
     inkscape:groupmode="layer"
     id="layer1"
     transform="translate(0,-1028.362)">
    <path
       style="color:#000000;fill:#00ccb4;fill-opacity:1;fill-rule:nonzero;stroke-width:0.16821362000000001;stroke-linecap:butt;stroke-linejoin:miter;stroke-miterlimit:4;stroke-opacity:1;stroke-dasharray:none;stroke-dashoffset:0;marker:none;visibility:visible;display:inline;overflow:visible;enable-background:accumulate"
       d="m 7.1385616,1035.928 c -0.070029,0 -0.1385617,0.068 -0.1385617,0.1387 l 0,8.5908 c 0,0.07 0.068532,0.1385 0.1385617,0.1385 l 9.7228764,0 c 0.07003,0 0.138562,-0.068 0.138562,-0.1385 l 0,-8.5908 c 0,-0.07 -0.06853,-0.1387 -0.138562,-0.1387 z m 2.4941114,2.2448 4.734654,0 c 0.0347,0 0.05542,0.02 0.05542,0.055 l 0,4.2677 c 0,0.035 -0.02073,0.055 -0.05542,0.055 l -4.7346539,0 c -0.034702,0 -0.055425,-0.02 -0.055425,-0.055 l 0,-4.2677 c 0,-0.035 0.020723,-0.055 0.055425,-0.055 z"
       id="rect3015"
       inkscape:connector-curvature="0"
       sodipodi:nodetypes="ssssssssssssssssss" />
  </g>
</svg>
