<?xml version="1.0" encoding="UTF-8" standalone="no"?>
<!-- Created with Inkscape (http://www.inkscape.org/) -->

<svg
   xmlns:dc="http://purl.org/dc/elements/1.1/"
   xmlns:cc="http://creativecommons.org/ns#"
   xmlns:rdf="http://www.w3.org/1999/02/22-rdf-syntax-ns#"
   xmlns:svg="http://www.w3.org/2000/svg"
   xmlns="http://www.w3.org/2000/svg"
   xmlns:sodipodi="http://sodipodi.sourceforge.net/DTD/sodipodi-0.dtd"
   xmlns:inkscape="http://www.inkscape.org/namespaces/inkscape"
   width="24"
   height="24"
   id="svg2"
   version="1.1"
   inkscape:version="0.48.4 r9939"
   sodipodi:docname="prelight-max.svg">
  <defs
     id="defs4" />
  <sodipodi:namedview
     id="base"
     pagecolor="#ffffff"
     bordercolor="#666666"
     borderopacity="1.0"
     inkscape:pageopacity="0.0"
     inkscape:pageshadow="2"
     inkscape:zoom="22.4"
     inkscape:cx="-4.9925708"
     inkscape:cy="19.252735"
     inkscape:document-units="px"
     inkscape:current-layer="layer1"
     showgrid="false"
     width="743.09449px"
     inkscape:window-width="2462"
     inkscape:window-height="1564"
     inkscape:window-x="98"
     inkscape:window-y="36"
     inkscape:window-maximized="1" />
  <metadata
     id="metadata7">
    <rdf:RDF>
      <cc:Work
         rdf:about="">
        <dc:format>image/svg+xml</dc:format>
        <dc:type
           rdf:resource="http://purl.org/dc/dcmitype/StillImage" />
        <dc:title></dc:title>
      </cc:Work>
    </rdf:RDF>
  </metadata>
  <g
     inkscape:label="Layer 1"
     inkscape:groupmode="layer"
     id="layer1"
     transform="translate(0,-1028.362)">
    <path
       style="color:#000000;fill:#ffffff;fill-opacity:1;fill-rule:nonzero;stroke-width:0.16821362;stroke-linecap:butt;stroke-linejoin:miter;stroke-miterlimit:4;stroke-opacity:1;stroke-dasharray:none;stroke-dashoffset:0;marker:none;visibility:visible;display:inline;overflow:visible;enable-background:accumulate"
       d="M 6.166274,1035.0412 C 6.082239,1035.0412 6,1035.1232 6,1035.2076 l 0,10.309 c 0,0.084 0.082238,0.1662 0.166274,0.1662 l 11.667452,0 c 0.08404,0 0.166274,-0.082 0.166274,-0.1662 l 0,-10.309 c 0,-0.084 -0.08224,-0.1664 -0.166274,-0.1664 z m 2.9929341,2.6938 5.6815839,0 c 0.04164,0 0.0665,0.024 0.0665,0.066 l 0,5.1212 c 0,0.042 -0.02488,0.066 -0.0665,0.066 l -5.6815839,0 c -0.04164,0 -0.06651,-0.024 -0.06651,-0.066 l 0,-5.1212 c 0,-0.042 0.02487,-0.066 0.06651,-0.066 z"
       id="rect3015"
       inkscape:connector-curvature="0"
       sodipodi:nodetypes="ssssssssssssssssss" />
  </g>
</svg>
